<svg id="fin" xmlns="http://www.w3.org/2000/svg" viewBox="0 0 160 160"><defs><style>.cls-1{fill:#e62a33;}.cls-2{fill:#e62c34;}</style></defs><polygon class="cls-1" points="80 0 71.5 8.5 143 80 71.5 151.5 80 160 160 80 80 0"/><polygon class="cls-1" points="62.5 17.5 71.5 26.5 18 80 71.5 133.5 62.5 142.5 0 80 62.5 17.5"/><path class="cls-2" d="M114.9,103.2c0-13-7.81-17.48-23.43-19.33C80.32,82.38,78.09,79.4,78.09,74.2s3.72-8.55,11.15-8.55c6.7,0,10.42,2.23,12.27,7.81a2.83,2.83,0,0,0,2.61,1.86h5.95a2.55,2.55,0,0,0,2.6-2.49v-.49A18.58,18.58,0,0,0,95.94,57.1V48.18c0-1.49-1.12-2.61-3-3H87.39c-1.49,0-2.61,1.12-3,3v8.55c-11.15,1.48-18.22,8.92-18.22,18.21,0,12.27,7.44,17.11,23,19C99.65,95.76,103,98,103,103.94s-5.2,10-12.27,10c-9.67,0-13-4.09-14.13-9.67a2.71,2.71,0,0,0-2.6-2.23H67.69a2.55,2.55,0,0,0-2.61,2.48v.5c1.49,9.29,7.44,16,19.72,17.84v8.92c0,1.49,1.12,2.61,3,3h5.57c1.49,0,2.61-1.12,3-3V122.9c11.15-1.85,18.59-9.67,18.59-19.72Z" transform="translate(-10.3 -10.5)"/></svg>