<svg id="final" xmlns="http://www.w3.org/2000/svg" viewBox="0 0 163.91 163.91"><defs><style>.cls-1{fill:#e6252f;stroke:#e6252f;stroke-miterlimit:10;}.cls-2{fill:#e62831;fill-rule:evenodd;}</style></defs><polygon class="cls-1" points="81.96 0.71 68.02 14.65 135.33 81.96 68.02 149.27 81.96 163.21 163.21 81.96 81.96 0.71"/><polygon class="cls-1" points="68.17 122.65 54.93 135.96 0.71 82.05 54.62 27.83 67.59 40.74 26.96 81.67 68.17 122.65"/><path class="cls-2" d="M51,91.6h6.77l-.05-.38v-.66l0-.37V87.41l0-.37v-.66l.05-.38h-10l2.3-5.55h8.65l.38-1.31.42-1.32L60,76.55l.56-1.27L61.12,74l.66-1.17.66-1.18.7-1.18.8-1.08.8-1.08.85-1.08.89-1,.94-1,1-.94,1-.9,1-.84,1.08-.8,1.13-.8,1.13-.71,1.17-.7L76.17,59l1.22-.62,1.27-.51,1.27-.47,1.31-.47,1.37-.38L84,56.19,85.33,56l1.37-.24,1.41-.14,1.46-.09L91,55.44l1.7.05,1.69.14,1.69.23,1.65.28,1.64.38L101,57l1.59.52,1.51.61,1.46.7,1.45.71,1.42.85,1.36.84,1.32,1,1.26,1,1.18,1,1.18,1.13-2.31,5.5-.09.1-1-1.13-1-1-1.13-1L108,66.86,106.78,66l-1.23-.85-1.31-.75-1.32-.66-1.36-.61-1.41-.56-1.46-.42-1.51-.38-1.5-.33-1.51-.23-1.59-.1L91,61H89.85l-1.13.1-1.13.09-1.13.19-1.13.19-1.08.23-1.08.33-1,.33-1,.38-1,.37-1,.47-1,.47-.94.57-.94.56-.89.57-.89.66-.85.65-.85.71-.8.7-.75.76-.75.8-.71.8-.65.84-.66.9-.61.89-.62.89-.51.94-.52,1-.47,1-.42,1-.43,1-.33,1h43.83L106,86H63.38l-.05.38,0,.33V87l-.05.37v2.78l.05.37v.33l0,.33.05.38h40.34l-2.3,5.55H64.5l.33,1,.43,1,.42,1,.47,1,.52,1,.51.94.62.89.61.89.66.9.65.84.71.8.75.8.75.75.8.71.85.71.85.65.89.66.89.57.94.56.94.56,1,.47,1,.47,1,.38,1,.38,1,.37,1.08.28,1.08.24,1.13.19,1.13.19,1.13.09,1.13.09H91l1.56,0,1.59-.1,1.51-.23,1.5-.28,1.51-.43,1.46-.42,1.41-.56,1.36-.62,1.32-.65,1.31-.76,1.23-.84,1.22-.9,1.13-.94,1.13-1,1-1,1-1.13v7.81l-1.13.89-1.13.8-1.17.8-1.23.75-1.22.66-1.27.66-1.32.56-1.31.52-1.37.47-1.36.42-1.41.33-1.46.29-1.41.23L94,122l-1.46.09-1.51,0-1.45,0L88.11,122l-1.41-.14-1.37-.24L84,121.41l-1.36-.33-1.37-.38-1.31-.47-1.27-.47-1.27-.52-1.22-.61L74.94,118l-1.17-.7-1.13-.71-1.13-.8-1.08-.8-1-.84-1-.9-1-.94-.94-1-.89-1-.85-1.08-.8-1.08-.8-1.09-.7-1.17-.66-1.18-.66-1.17-.57-1.27L60,101.05l-.47-1.27-.42-1.32-.38-1.31h-10L51,91.6Z" transform="translate(-8.54 -7.39)"/></svg>